<svg xmlns="http://www.w3.org/2000/svg" width="1200" height="630" viewBox="0 0 1200 630">
  <defs><pattern id="scan" width="3" height="3" patternUnits="userSpaceOnUse"><path d="M0 2.5H3" stroke="#000" opacity=".08"/></pattern></defs>
  <rect width="1200" height="630" fill="#747474"/><rect width="1200" height="630" fill="url(#scan)"/>
  <text x="90" y="78" fill="#fff" font-family="Arial" font-size="25" font-weight="700" letter-spacing="2">AI <tspan fill="#00c8ff">MASTERY</tspan></text>
  <text x="90" y="103" fill="#bdbdbd" font-family="monospace" font-size="10" letter-spacing="3">INTELLIGENCE SYSTEMS ARCHITECTURE // MASON NGUYEN</text>
  <rect x="88" y="135" width="1024" height="405" fill="#c0c0c0" stroke="#fff" stroke-width="4"/>
  <path d="M1112 135V540H88" fill="none" stroke="#404040" stroke-width="4"/>
  <rect x="94" y="141" width="1012" height="37" fill="#000080"/>
  <text x="112" y="166" fill="#fff" font-family="monospace" font-size="15">AI_MASTERY.EXE — THE ARCHITECTURE OF INTELLIGENCE</text>
  <rect x="1010" y="148" width="24" height="23" fill="#c0c0c0" stroke="#fff"/><rect x="1040" y="148" width="24" height="23" fill="#c0c0c0" stroke="#fff"/><rect x="1070" y="148" width="24" height="23" fill="#c0c0c0" stroke="#fff"/>
  <text x="124" y="246" fill="#606060" font-family="monospace" font-size="12" letter-spacing="2">WINDOWS 95 ROOTS · INTELLIGENCE INFRASTRUCTURE</text>
  <text x="120" y="355" fill="#111" font-family="Arial Black,Arial" font-size="91" font-weight="900" letter-spacing="-5">THE MACHINE</text>
  <text x="120" y="446" fill="#000080" font-family="Arial Black,Arial" font-size="91" font-weight="900" letter-spacing="-5">TALKS BACK.</text>
  <rect x="781" y="222" width="273" height="208" fill="#d4d0c8" stroke="#808080" stroke-width="3"/>
  <rect x="786" y="227" width="263" height="28" fill="#000080"/><text x="799" y="246" fill="#fff" font-family="monospace" font-size="10">CLOSED_LOOP.SYS</text>
  <text x="805" y="288" fill="#222" font-family="monospace" font-size="12">01  ACQUIRE</text><text x="805" y="318" fill="#222" font-family="monospace" font-size="12">02  RETRIEVE</text><text x="805" y="348" fill="#222" font-family="monospace" font-size="12">03  REASON</text><text x="805" y="378" fill="#222" font-family="monospace" font-size="12">04  ACT → OBSERVE → VERIFY ↻</text>
  <text x="123" y="500" fill="#4c4c4c" font-family="monospace" font-size="13">THE TOOLS ARE INTERCHANGEABLE. THE LOOP IS NOT.</text>
</svg>
